<svg width="25" height="25" viewBox="0 0 25 25" fill="none" xmlns="http://www.w3.org/2000/svg">
<path fill-rule="evenodd" clip-rule="evenodd" d="M18.3088 3.90625C16.6274 3.90625 15.2642 5.26997 15.2642 6.95188C15.2642 8.63378 16.6274 9.9975 18.3088 9.9975C19.9905 9.9975 21.3545 8.63353 21.3545 6.95188C21.3545 5.27022 19.9905 3.90625 18.3088 3.90625ZM13.7017 6.95188C13.7017 4.40753 15.764 2.34375 18.3088 2.34375C20.8534 2.34375 22.917 4.40728 22.917 6.95188C22.917 9.49647 20.8534 11.56 18.3088 11.56C15.764 11.56 13.7017 9.49622 13.7017 6.95188Z" fill="black"/>
<path fill-rule="evenodd" clip-rule="evenodd" d="M7.21119 3.90625C5.5306 3.90625 4.1665 5.27009 4.1665 6.95188C4.1665 8.63366 5.5306 9.9975 7.21119 9.9975C8.89366 9.9975 10.2568 8.63366 10.2568 6.95188C10.2568 5.27009 8.89366 3.90625 7.21119 3.90625ZM2.604 6.95188C2.604 4.40741 4.66741 2.34375 7.21119 2.34375C9.75685 2.34375 11.8193 4.40741 11.8193 6.95188C11.8193 9.49634 9.75685 11.56 7.21119 11.56C4.66741 11.56 2.604 9.49634 2.604 6.95188Z" fill="black"/>
<path fill-rule="evenodd" clip-rule="evenodd" d="M18.3088 14.9355C16.6274 14.9355 15.2642 16.2993 15.2642 17.9811C15.2642 19.6628 16.6272 21.0258 18.3088 21.0258C19.9907 21.0258 21.3545 19.6626 21.3545 17.9811C21.3545 16.2995 19.9905 14.9355 18.3088 14.9355ZM13.7017 17.9811C13.7017 15.4369 15.764 13.373 18.3088 13.373C20.8534 13.373 22.917 15.4366 22.917 17.9811C22.917 20.526 20.8532 22.5883 18.3088 22.5883C15.7643 22.5883 13.7017 20.5257 13.7017 17.9811Z" fill="black"/>
<path fill-rule="evenodd" clip-rule="evenodd" d="M7.21119 14.9355C5.5306 14.9355 4.1665 16.2994 4.1665 17.9811C4.1665 19.6627 5.53035 21.0258 7.21119 21.0258C8.89391 21.0258 10.2568 19.6627 10.2568 17.9811C10.2568 16.2994 8.89366 14.9355 7.21119 14.9355ZM2.604 17.9811C2.604 15.4367 4.66741 13.373 7.21119 13.373C9.75685 13.373 11.8193 15.4367 11.8193 17.9811C11.8193 20.5259 9.7566 22.5883 7.21119 22.5883C4.66766 22.5883 2.604 20.5259 2.604 17.9811Z" fill="black"/>
</svg>
