<svg width="15" height="10" viewBox="0 0 15 10" fill="none" xmlns="http://www.w3.org/2000/svg">
<path d="M7.49993 7.81247C5.7222 7.81247 4.28314 6.6658 4.15072 5.21269L1.69213 3.62931C1.36893 3.9672 1.07151 4.32442 0.831509 4.71504C0.777894 4.80342 0.74996 4.90107 0.74996 5.0001C0.74996 5.09913 0.777894 5.19677 0.831509 5.28515C2.10252 7.35173 4.61876 8.74996 7.49993 8.74996C8.13063 8.74996 8.73906 8.67184 9.32547 8.54567L8.1093 7.7615C7.90845 7.79383 7.70448 7.81089 7.49993 7.81247ZM14.8551 8.94723L12.2641 7.27849C13.0511 6.72575 13.6984 6.04809 14.1683 5.28496C14.222 5.19658 14.2499 5.09893 14.2499 4.9999C14.2499 4.90087 14.222 4.80323 14.1683 4.71485C12.8973 2.64827 10.3811 1.25004 7.49993 1.25004C6.29325 1.25126 5.10617 1.50441 4.04712 1.98636L1.06541 0.0658709C1.02653 0.0406578 0.98207 0.0220765 0.934567 0.0111889C0.887064 0.000301224 0.837452 -0.00267937 0.788566 0.0024174C0.73968 0.00751418 0.692479 0.0205884 0.649659 0.040893C0.606839 0.0611976 0.56924 0.0883346 0.53901 0.120753L0.0789334 0.614303C0.017902 0.679729 -0.00944575 0.762677 0.00290486 0.844904C0.0152555 0.927131 0.0662931 1.0019 0.144793 1.05277L13.9344 9.93413C13.9733 9.95934 14.0178 9.97792 14.0653 9.98881C14.1128 9.9997 14.1624 10.0027 14.2113 9.99758C14.2602 9.99249 14.3074 9.97941 14.3502 9.95911C14.393 9.9388 14.4306 9.91167 14.4608 9.87925L14.9212 9.3857C14.9822 9.32025 15.0095 9.23728 14.9971 9.15506C14.9847 9.07283 14.9336 8.99807 14.8551 8.94723ZM10.5491 6.17382L9.62805 5.58046C9.70561 5.39364 9.74676 5.19767 9.74992 5C9.75449 4.7106 9.67756 4.42434 9.52529 4.16422C9.37302 3.90409 9.14966 3.67735 8.87316 3.50221C8.59666 3.32706 8.27472 3.2084 7.93321 3.15575C7.59169 3.1031 7.24012 3.11793 6.90673 3.19904C7.04806 3.35863 7.12451 3.55167 7.12493 3.75001C7.12143 3.81601 7.10933 3.8815 7.08883 3.94532L5.36361 2.8342C5.9629 2.41686 6.71893 2.18801 7.49993 2.18753C7.94321 2.18732 8.38219 2.25993 8.79177 2.4012C9.20135 2.54246 9.57351 2.74962 9.88695 3.01082C10.2004 3.27203 10.449 3.58215 10.6185 3.92347C10.788 4.26479 10.8752 4.6306 10.8749 5C10.8749 5.42246 10.7509 5.8162 10.5491 6.17401V6.17382Z" fill="#848484"/>
</svg>
