<svg width="42" height="27" viewBox="0 0 42 27" fill="none" xmlns="http://www.w3.org/2000/svg">
<path d="M16.8539 9.77238C16.755 9.83763 16.3816 10.1166 16.0339 10.3461C13.9949 11.7895 8.67584 14.152 5.89187 14.8731C5.46907 14.989 4.40015 15.2343 3.82903 15.25C3.28178 15.25 2.76011 15.169 2.2623 15.0047C1.64174 14.7752 1.14394 14.4141 0.871164 13.9878C0.695568 13.6919 0.422796 12.8065 0.422796 12.7908C0.150024 11.8221 0 10.2483 0 8.509C0 6.85187 0.150024 5.34212 0.373356 4.35888C0.398928 4.34313 0.6717 3.24287 0.970044 2.866C1.51729 2.1775 2.58622 1.75 3.73015 1.75H3.82903C4.57404 1.76687 6.14077 2.19438 6.14077 2.21012C8.77472 2.93238 13.971 5.179 16.0594 6.67188C16.0594 6.67188 16.6476 7.0555 16.9033 7.29513C17.3022 7.63937 17.5 8.06575 17.5 8.49213C17.5 8.968 17.2767 9.41125 16.8539 9.77238Z" fill="black"/>
</svg>
