<svg width="18" height="14" viewBox="0 0 18 14" fill="none" xmlns="http://www.w3.org/2000/svg">
<path d="M17.0619 8.3195C16.9618 8.38717 16.5839 8.6765 16.2318 8.9145C14.1677 10.4113 8.78295 12.8613 5.96461 13.6092C5.53659 13.7293 4.45447 13.9837 3.8763 14C3.3223 14 2.79418 13.916 2.29023 13.7457C1.66201 13.5077 1.15806 13.1332 0.881919 12.691C0.704155 12.3842 0.428016 11.466 0.428016 11.4497C0.151877 10.4452 0 8.813 0 7.00933C0 5.29083 0.151877 3.72517 0.377965 2.7055C0.403854 2.68917 0.679993 1.54817 0.98202 1.15733C1.53602 0.443333 2.61814 0 3.7762 0H3.8763C4.63051 0.0175 6.21658 0.460833 6.21658 0.477167C8.88305 1.22617 14.1435 3.556 16.2577 5.10417C16.2577 5.10417 16.8531 5.502 17.112 5.7505C17.5159 6.1075 17.7161 6.54967 17.7161 6.99183C17.7161 7.48533 17.49 7.945 17.0619 8.3195Z" fill="black"/>
</svg>
